<?xml version="1.0" standalone="no"?>
<!DOCTYPE svg PUBLIC "-//W3C//DTD SVG 20010904//EN"
 "http://www.w3.org/TR/2001/REC-SVG-20010904/DTD/svg10.dtd">
<svg version="1.0" xmlns="http://www.w3.org/2000/svg"
 width="400.000000pt" height="400.000000pt" viewBox="0 0 400.000000 400.000000"
 preserveAspectRatio="xMidYMid meet">
<metadata>
Created by potrace 1.14, written by Peter Selinger 2001-2017
</metadata>
<g transform="translate(0.000000,400.000000) scale(0.100000,-0.100000)"
fill="#000000" stroke="none">
<path d="M0 2000 l0 -2000 2000 0 2000 0 0 2000 0 2000 -2000 0 -2000 0 0
-2000z m2057 1715 c25 -11 274 -253 786 -763 412 -411 776 -777 809 -815 68
-76 83 -118 67 -182 -9 -35 -119 -148 -822 -852 -727 -727 -816 -813 -854
-823 -98 -25 -46 -70 -945 828 -887 888 -841 835 -823 930 6 33 98 129 818
849 524 524 824 817 847 827 45 19 72 20 117 1z"/>
<path d="M1172 2858 c-436 -436 -800 -806 -808 -822 -10 -17 -13 -39 -9 -55 4
-17 286 -306 808 -829 757 -757 804 -802 837 -802 33 0 81 46 842 808 761 760
808 809 808 842 0 33 -47 82 -808 842 -761 762 -809 808 -842 808 -33 0 -81
-46 -828 -792z m1233 -226 c187 -107 346 -199 353 -204 9 -8 12 -106 12 -429
l0 -418 -27 -19 c-16 -10 -183 -107 -373 -215 l-346 -197 -299 171 c-165 94
-331 190 -370 213 l-70 41 0 425 0 425 370 212 c316 181 372 210 390 201 11
-6 173 -99 360 -206z"/>
<path d="M1895 2730 c-66 -37 -220 -126 -342 -196 l-223 -129 -2 -405 -3 -404
155 -89 c468 -269 535 -307 546 -307 11 0 664 371 692 392 9 8 12 102 12 409
l0 399 -22 14 c-64 42 -674 386 -683 385 -5 0 -64 -31 -130 -69z m-161 -565
c128 -74 240 -137 250 -141 10 -4 94 38 239 119 284 159 287 161 299 149 6 -6
7 -15 4 -20 -3 -6 -119 -74 -256 -153 l-250 -142 0 -94 c0 -59 4 -93 11 -93 6
0 114 61 242 135 216 126 260 145 244 102 -3 -8 -116 -79 -251 -158 l-247
-144 3 -117 c2 -65 3 -118 4 -118 0 0 106 61 235 135 128 74 239 135 246 135
7 0 13 -8 13 -17 0 -12 -45 -44 -138 -97 -75 -44 -193 -113 -261 -154 -69 -41
-127 -70 -132 -65 -5 5 -10 129 -11 276 l-3 268 -247 147 c-178 105 -248 151
-248 164 0 10 5 18 11 18 6 0 115 -61 243 -135z"/>
</g>
</svg>
